<svg width="40" height="40" viewBox="0 0 40 40" fill="none" xmlns="http://www.w3.org/2000/svg">
<rect width="40" height="40" rx="20" fill="#252525"/>
<path d="M22.76 19.9987L16.1885 13.4269C16.0628 13.3014 16.0008 13.1513 16.0023 12.9766C16.004 12.8018 16.0677 12.6517 16.1934 12.5262C16.3188 12.4006 16.469 12.3377 16.6437 12.3377C16.8185 12.3377 16.9686 12.4006 17.0941 12.5262L23.6037 19.0307C23.7413 19.1683 23.8417 19.3217 23.905 19.4909C23.9683 19.6602 24 19.8295 24 19.9987C24 20.168 23.9683 20.3372 23.905 20.5066C23.8417 20.6758 23.7413 20.8292 23.6037 20.9668L17.0941 27.4762C16.9686 27.6018 16.8176 27.6638 16.6412 27.6621C16.4649 27.6605 16.3139 27.5969 16.1885 27.4713C16.0628 27.3458 16 27.1957 16 27.0209C16 26.8462 16.0628 26.696 16.1885 26.5705L22.76 19.9987Z" fill="white"/>
</svg>
