<svg width="211" height="45" viewBox="0 0 211 45" fill="none" xmlns="http://www.w3.org/2000/svg">
<g clip-path="url(#clip0_4088_315)">
<path d="M133.25 23.1V19.34H142.14V23.1H133.25Z" fill="#206EEC"/>
<path d="M161.16 22.68C165.44 21.84 166.8 18.68 166.8 15.68C166.8 11.81 163.98 8.26001 158.8 8.26001H148.1V12.26H158.76C159.252 12.2153 159.747 12.2741 160.215 12.4325C160.683 12.591 161.112 12.8456 161.476 13.1799C161.84 13.5143 162.129 13.921 162.326 14.374C162.523 14.8269 162.623 15.3161 162.62 15.81C162.62 17.59 161.47 19.36 158.76 19.36H148.1V30.62H152.28V23.1H156.35L162.83 30.62H167.83V30.31L161.16 22.68Z" fill="#206EEC"/>
<path d="M197.631 21.43L188.961 8.46001V8.26001H193.981L199.721 17.56L205.681 8.26001H210.701V8.46001L201.811 21.43V30.62H197.631V21.43Z" fill="#206EEC"/>
<path d="M173.071 30.62H173.701L181.541 12.96L189.271 30.62H193.871L183.841 8.26001H179.241L169.211 30.62H173.071Z" fill="#206EEC"/>
<path d="M119.56 23.7201L117.26 20.5901L110.26 30.6201V30.7301H114.86L118.41 25.6101L119.67 23.8301L119.56 23.7201Z" fill="#206EEC"/>
<path d="M123.329 26.86L125.939 30.73H130.539V30.62L123.429 20.48L121.029 23.62L123.329 26.86Z" fill="#206EEC"/>
<path d="M128.241 12.02L137.231 0L128.341 9.09L120.401 17.14L114.971 9.09H110.471V9.2L120.291 22.78L120.401 22.89L120.501 22.68L128.241 12.02Z" fill="#206EEC"/>
<path d="M96.3595 8.26001H100.539V30.73H97.9295L86.1194 15.73V30.73H81.9395V8.26001H85.3895L96.3895 22.16L96.3595 8.26001Z" fill="#206EEC"/>
<path fill-rule="evenodd" clip-rule="evenodd" d="M78.5896 19.54C78.4896 25.29 74.9396 31.14 67.0996 31.14C59.2596 31.14 55.5996 25.5 55.5996 19.54C55.5996 13.58 59.3596 7.72998 67.0996 7.72998C74.8396 7.72998 78.5896 13.69 78.5896 19.54ZM59.6796 19.65C59.7796 23.31 61.7696 27.28 66.9896 27.28C72.2096 27.28 74.2096 23.28 74.3096 19.65C74.4096 16.02 72.2196 11.65 66.9896 11.65C61.7596 11.65 59.5396 15.89 59.6796 19.65Z" fill="#206EEC"/>
<path d="M54.1397 27.8001C53.0211 28.8923 51.6957 29.7503 50.2413 30.3238C48.7869 30.8973 47.2327 31.1749 45.6697 31.1401C37.3097 31.1401 33.8597 25.4001 33.7597 19.5401C33.6597 13.6801 37.6297 7.84009 45.6697 7.84009C47.2064 7.83937 48.7279 8.14398 50.1459 8.73623C51.5638 9.32849 52.85 10.1966 53.9297 11.2901L51.1097 14.0001C49.6184 12.6526 47.6795 11.9077 45.6697 11.9101C40.2397 11.9101 37.9396 15.9101 37.9396 19.6501C37.9396 23.3901 40.1297 27.2801 45.6697 27.2801C47.7767 27.2584 49.7965 26.4361 51.3197 24.9801L54.1397 27.8001Z" fill="#206EEC"/>
<path d="M14.63 8.26001H10.04L0 30.62H3.97H4.60001L12.33 12.96L20.07 30.62H24.67" fill="#206EEC"/>
<path d="M26.6504 17.87L30.8304 8.57001V8.26001H26.6504V17.87ZM30.8304 13.48L26.6504 22.78V30.62H30.8304V13.48Z" fill="#206EEC"/>
<path d="M108.539 35.3301H109.679V43.0001H108.539V35.3301Z" fill="#206EEC"/>
<path d="M119.039 43.0001V37.3101L116.219 42.0001H115.699L112.869 37.4101V43.0001H111.869V35.3201H112.809L116.049 40.7601L119.189 35.3201H120.129V43.0001H119.039Z" fill="#206EEC"/>
<path d="M127.3 41.07H123.22L122.39 43H121.24L124.68 35.38H125.73L129.18 43H128.03L127.3 41.07ZM126.88 40.24L125.21 36.47L123.54 40.24H126.88Z" fill="#206EEC"/>
<path d="M135.66 39.09H136.66V42.09C136.243 42.3959 135.786 42.6417 135.3 42.82C134.799 42.9926 134.269 43.064 133.74 43.03C133.013 43.0179 132.298 42.84 131.65 42.51C131.047 42.1962 130.54 41.7266 130.18 41.15C129.851 40.534 129.672 39.8485 129.66 39.15C129.655 38.4493 129.835 37.7596 130.18 37.15C130.505 36.5456 131.022 36.0669 131.65 35.79C132.297 35.4555 133.012 35.2774 133.74 35.27C134.312 35.2618 134.88 35.3671 135.41 35.58C135.878 35.7706 136.303 36.0528 136.66 36.41L135.93 37.15C135.649 36.852 135.309 36.6148 134.933 36.4532C134.556 36.2915 134.15 36.2087 133.74 36.21C132.945 36.21 132.182 36.526 131.619 37.0887C131.056 37.6513 130.74 38.4143 130.74 39.21C130.717 39.728 130.861 40.2398 131.15 40.67C131.42 41.0781 131.779 41.42 132.2 41.67C132.683 41.9326 133.221 42.0766 133.77 42.09C134.385 42.131 134.999 41.9957 135.54 41.7V39.09H135.66Z" fill="#206EEC"/>
<path d="M138.789 35.3301H139.939V43.0001H138.789V35.3301Z" fill="#206EEC"/>
<path d="M148.831 35.3301V43.0001H147.891L143.291 37.2601V43.0001H142.141V35.3301H143.081L147.681 41.0701V35.3301H148.831Z" fill="#206EEC"/>
<path d="M156.459 39.09H157.459V42.09C157.041 42.394 156.583 42.6395 156.099 42.82C155.595 42.9939 155.061 43.0653 154.529 43.03C153.802 43.0165 153.088 42.8387 152.439 42.51C151.839 42.196 151.335 41.7262 150.979 41.15C150.649 40.534 150.471 39.8485 150.459 39.15C150.454 38.4493 150.634 37.7596 150.979 37.15C151.3 36.5463 151.814 36.0675 152.439 35.79C153.086 35.4565 153.801 35.2785 154.529 35.27C155.104 35.2618 155.675 35.3671 156.209 35.58C156.677 35.7706 157.102 36.0528 157.459 36.41L156.729 37.15C156.446 36.8508 156.105 36.6129 155.727 36.4512C155.348 36.2895 154.941 36.2074 154.529 36.21C153.978 36.1728 153.43 36.3168 152.969 36.62C152.551 36.8737 152.193 37.2148 151.919 37.62C151.601 38.1189 151.467 38.7129 151.539 39.3C151.519 39.8191 151.666 40.331 151.959 40.76C152.229 41.1681 152.588 41.51 153.009 41.76C153.488 42.0215 154.023 42.1654 154.569 42.18C155.2 42.1832 155.819 42.0025 156.349 41.66V39.09H156.459Z" fill="#206EEC"/>
<path d="M170.46 43.69C170.258 43.9853 169.962 44.2038 169.62 44.31C169.299 44.4285 168.962 44.4993 168.62 44.52C168.148 44.5289 167.681 44.4224 167.26 44.21C166.719 43.901 166.227 43.5134 165.8 43.06C165.084 43.0626 164.385 42.8424 163.8 42.43C163.224 42.1189 162.751 41.6462 162.44 41.07C162.107 40.4552 161.929 39.7689 161.92 39.07C161.932 38.3715 162.11 37.6859 162.44 37.07C162.768 36.4679 163.284 35.9901 163.91 35.71C164.558 35.3789 165.273 35.201 166 35.19C166.727 35.2035 167.441 35.3813 168.09 35.71C168.69 36.0337 169.191 36.5141 169.54 37.1C169.87 37.7159 170.048 38.4015 170.06 39.1C170.085 39.7174 169.94 40.3298 169.64 40.87C169.405 41.3879 169.064 41.8511 168.64 42.23C168.186 42.6003 167.646 42.8512 167.07 42.96C167.28 43.28 167.59 43.38 167.8 43.59C168.026 43.7089 168.275 43.7804 168.53 43.8C168.79 43.8082 169.048 43.7555 169.285 43.6461C169.521 43.5368 169.728 43.3737 169.89 43.17L170.46 43.69ZM163.35 40.69C163.597 41.1172 163.961 41.4644 164.4 41.69C164.882 41.9527 165.421 42.0966 165.97 42.11C166.489 42.1304 167.001 41.9831 167.43 41.69C167.853 41.4608 168.201 41.1133 168.43 40.69C168.678 40.2377 168.822 39.7353 168.85 39.22C168.875 38.7003 168.727 38.1871 168.43 37.76C168.202 37.3356 167.854 36.9878 167.43 36.76C166.98 36.5148 166.481 36.3747 165.97 36.35C165.419 36.3399 164.876 36.4817 164.4 36.76C163.96 36.9838 163.595 37.3314 163.35 37.76C163.105 38.2095 162.965 38.7086 162.94 39.22C163.014 39.7156 163.152 40.1995 163.35 40.66V40.69Z" fill="#206EEC"/>
<path d="M172.539 42.2201C171.968 41.5107 171.67 40.6202 171.699 39.7101V35.3201H172.749V39.6101C172.749 41.2801 173.479 42.1201 174.939 42.1201C175.232 42.15 175.528 42.1083 175.802 41.9986C176.075 41.8888 176.318 41.7143 176.509 41.4901C176.716 41.227 176.869 40.9252 176.958 40.6024C177.048 40.2796 177.072 39.9423 177.029 39.6101V35.3301H178.079V39.7101C178.114 40.1633 178.057 40.6188 177.913 41.0499C177.768 41.4809 177.539 41.8788 177.239 42.2201C176.928 42.5314 176.551 42.7686 176.135 42.914C175.72 43.0594 175.277 43.1093 174.839 43.0601C174.417 43.1104 173.988 43.0606 173.589 42.9146C173.189 42.7687 172.83 42.5308 172.539 42.2201Z" fill="#206EEC"/>
<path d="M185.201 41.0701H181.121L180.281 43.0001H179.141L182.541 35.3301H183.541L187.081 43.0001H185.931L185.201 41.0701ZM184.781 40.2401L183.111 36.4701L181.431 40.2401H184.781Z" fill="#206EEC"/>
<path d="M188.33 35.33H189.48V42H193.66V43H188.44V35.33H188.33Z" fill="#206EEC"/>
<path d="M194.811 35.3301H195.961V43.0001H194.811V35.3301Z" fill="#206EEC"/>
<path d="M199.719 36.27H197.109V35.27H203.539V36.27H200.919V43H199.919V36.27H199.719Z" fill="#206EEC"/>
<path d="M207.539 40.34V43H206.539V40.24L203.539 35.24H204.689L207.189 39.32L209.699 35.24H210.749L207.539 40.34Z" fill="#206EEC"/>
</g>
<defs>
<clipPath id="clip0_4088_315">
<rect width="210.75" height="44.5205" fill="white"/>
</clipPath>
</defs>
</svg>
