<svg width="16" height="16" viewBox="0 0 16 16" fill="none" xmlns="http://www.w3.org/2000/svg">
<path d="M16.0001 16.0005V10.1405C16.0001 7.26053 15.3801 5.06055 12.0201 5.06055C10.4001 5.06055 9.32013 5.94054 8.88013 6.78053H8.84013V5.32054H5.66016V16.0005H8.98013V10.7005C8.98013 9.30051 9.24013 7.96052 10.9601 7.96052C12.6601 7.96052 12.6801 9.54051 12.6801 10.7805V15.9805H16.0001V16.0005Z" fill="#515151"/>
<path d="M0.257812 5.32007H3.57779V16H0.257812V5.32007Z" fill="#515151"/>
<path d="M1.91998 0C0.859993 0 0 0.859993 0 1.91998C0 2.97998 0.859993 3.85997 1.91998 3.85997C2.97998 3.85997 3.83997 2.97998 3.83997 1.91998C3.83997 0.859993 2.97998 0 1.91998 0Z" fill="#515151"/>
</svg>
