<svg width="1361" height="176" viewBox="0 0 1361 176" fill="none" xmlns="http://www.w3.org/2000/svg">
<path d="M613.638 135.036L613.9 168.135C613.928 172.264 617.283 175.592 621.412 175.592H767.564C771.706 175.592 775.076 172.223 775.076 168.08V151.855C775.076 147.616 771.582 144.219 767.357 144.343L664.288 147.27C657.494 147.464 653.959 139.261 658.765 134.456L682.806 110.387C684.214 108.979 685.001 107.073 685.001 105.085V81.8307C685.001 75.1334 676.909 71.7917 672.173 76.5143L613.638 135.063M645.108 51.7276V38.9821C645.108 34.8395 648.477 31.4701 652.62 31.4701H767.564C771.706 31.4701 775.076 28.1008 775.076 23.9582V7.51196C775.076 3.36934 771.706 0 767.564 0H621.163C617.021 0 613.652 3.36934 613.652 7.51196V68.1738C613.652 74.8711 621.743 78.2128 626.48 73.4902L642.926 57.044C644.335 55.6355 645.122 53.7299 645.122 51.7276H645.108Z" fill="#252525"/>
<path d="M0 171.588V0H32.6439L96.9927 76.7352L161.107 0H193.999V171.588H165.166V40.0316L139.689 70.397C117.402 96.9789 76.5281 97.0479 54.1579 70.5351L28.6117 40.2663V171.588H0Z" fill="#252525"/>
<path d="M252.866 171.588C245.423 171.588 238.753 169.295 232.843 164.725C230.841 163.178 229.046 161.369 227.499 159.367C222.956 153.47 220.691 146.828 220.691 139.413V32.1744C220.691 24.7867 222.956 18.1447 227.471 12.2622C229.004 10.2599 230.799 8.45096 232.802 6.90438C238.712 2.30606 245.395 0 252.866 0H360.105C365.973 0 371.345 1.43611 376.192 4.29452C381.039 7.15293 384.933 11.047 387.874 15.9767C390.815 20.9065 392.279 26.3057 392.279 32.1882V139.427C392.279 145.31 390.801 150.709 387.874 155.638C384.933 160.568 381.039 164.462 376.192 167.321C371.345 170.179 365.987 171.615 360.105 171.615H252.866V171.588ZM253.57 142.755H359.152C360.256 142.755 361.251 142.313 362.134 141.443C363.018 140.573 363.446 139.579 363.446 138.46V33.1272C363.446 32.0225 363.004 31.0283 362.134 30.1445C361.264 29.2746 360.27 28.8327 359.152 28.8327H253.57C252.452 28.8327 251.457 29.2746 250.587 30.1445C249.717 31.0145 249.276 32.0087 249.276 33.1272V138.46C249.276 139.579 249.717 140.573 250.587 141.443C251.457 142.313 252.452 142.755 253.57 142.755Z" fill="#252525"/>
<path d="M1028.21 171.588C1020.76 171.588 1014.09 169.295 1008.18 164.725C1006.18 163.178 1004.39 161.369 1002.84 159.367C998.296 153.47 996.031 146.828 996.031 139.413V32.1744C996.031 24.7867 998.296 18.1447 1002.81 12.2622C1004.34 10.2599 1006.14 8.45096 1008.14 6.90438C1014.05 2.30606 1020.74 0 1028.21 0H1135.44C1141.33 0 1146.68 1.43611 1151.53 4.29452C1156.38 7.15293 1160.27 11.047 1163.21 15.9767C1166.16 20.9065 1167.62 26.3057 1167.62 32.1882V139.427C1167.62 145.31 1166.14 150.709 1163.21 155.638C1160.27 160.568 1156.38 164.462 1151.53 167.321C1146.68 170.179 1141.33 171.615 1135.44 171.615H1028.21V171.588ZM1028.91 142.755H1134.49C1135.6 142.755 1136.59 142.313 1137.47 141.443C1138.36 140.573 1138.79 139.579 1138.79 138.46V33.1272C1138.79 32.0225 1138.34 31.0283 1137.47 30.1445C1136.6 29.2746 1135.61 28.8327 1134.49 28.8327H1028.91C1027.79 28.8327 1026.8 29.2746 1025.93 30.1445C1025.06 31.0145 1024.62 32.0087 1024.62 33.1272V138.46C1024.62 139.579 1025.06 140.573 1025.93 141.443C1026.8 142.313 1027.79 142.755 1028.91 142.755Z" fill="#252525"/>
<path d="M418.482 167.127V60.4682C418.482 27.2029 445.451 0.234375 478.716 0.234375H557.909C563.778 0.234375 569.15 1.6981 573.997 4.63937C578.843 7.58063 582.738 11.4747 585.679 16.3216C588.62 21.1684 590.084 26.5262 590.084 32.4088V78.3367C590.084 86.0143 587.709 93.5953 582.889 99.5745C580.404 102.654 577.449 105.209 573.997 107.238C569.15 110.097 563.792 111.533 557.909 111.533L451.541 111.768C449.083 111.768 447.094 113.77 447.094 116.228V167.141C447.094 169.599 445.092 171.601 442.634 171.601H422.956C420.498 171.601 418.496 169.599 418.496 167.141L418.482 167.127ZM451.375 82.7002H556.957C558.061 82.7002 559.056 82.2998 559.939 81.5127C560.809 80.7256 561.251 79.6899 561.251 78.4195V33.1268C561.251 32.0221 560.809 31.0279 559.939 30.1441C559.069 29.2742 558.075 28.8323 556.957 28.8323H451.375C450.256 28.8323 449.262 29.2742 448.392 30.1441C447.522 31.0141 447.08 32.0083 447.08 33.1268V78.4057C447.08 79.6761 447.522 80.7118 448.392 81.4989C449.262 82.2998 450.256 82.6864 451.375 82.6864V82.7002ZM555.852 169.999L504.525 108.674H539.903C541.201 108.674 542.43 109.241 543.272 110.207L589.904 163.992C590.512 164.697 590.885 165.567 590.981 166.492V166.699C591.244 169.309 589.186 171.573 586.563 171.573H559.276C557.951 171.573 556.708 170.993 555.852 169.972V169.999Z" fill="#252525"/>
<path d="M797.651 164.076V21.8178C797.651 9.7766 807.414 0 819.469 0H820.146C826.594 0 832.698 2.8446 836.841 7.78814L927.15 115.289C931.665 120.661 940.42 117.471 940.42 110.456V7.51196C940.406 3.36934 943.762 0 947.918 0H961.727C965.883 0 969.239 3.36934 969.239 7.51196V149.784C969.239 161.825 959.476 171.601 947.421 171.601H946.744C940.296 171.601 934.192 168.757 930.05 163.827L846.286 64.1417C839.464 56.0359 826.249 60.8552 826.249 71.4465V164.089C826.249 168.232 822.88 171.601 818.737 171.601H805.163C801.021 171.601 797.651 168.232 797.651 164.089V164.076Z" fill="#252525"/>
<path d="M1221.32 171.588C1215.44 171.588 1210.08 170.151 1205.24 167.293C1200.39 164.435 1196.54 160.541 1193.68 155.611C1190.82 150.681 1189.38 145.282 1189.38 139.399V127.966H1207.5C1213.29 127.966 1217.98 132.661 1217.98 138.447C1217.98 139.565 1218.42 140.559 1219.29 141.429C1220.16 142.299 1221.16 142.741 1222.28 142.741H1327.61C1328.88 142.741 1329.96 142.299 1330.83 141.429C1331.7 140.559 1332.14 139.565 1332.14 138.447V104.367C1332.14 103.096 1331.7 102.06 1330.83 101.273C1329.96 100.486 1328.88 100.086 1327.61 100.086H1221.32C1215.44 100.086 1210.08 98.6497 1205.24 95.7913C1200.39 92.9329 1196.54 89.0803 1193.68 84.2334C1190.82 79.3865 1189.38 74.0287 1189.38 68.1462V32.1606C1189.38 26.2781 1190.82 20.8788 1193.68 15.9491C1196.54 11.0194 1200.39 7.12532 1205.24 4.2669C1210.08 1.43611 1215.44 0 1221.32 0H1328.81C1334.68 0 1340.05 1.43611 1344.9 4.29452C1349.75 7.15293 1353.64 11.047 1356.58 15.9767C1359.52 20.9065 1360.99 26.3057 1360.99 32.1882V43.6219H1342.63C1336.85 43.6219 1332.15 38.9269 1332.15 33.141C1332.15 32.0363 1331.71 31.0421 1330.84 30.1583C1329.97 29.2884 1328.89 28.8465 1327.62 28.8465H1222.29C1221.17 28.8465 1220.18 29.2884 1219.31 30.1583C1218.44 31.0283 1218 32.0225 1218 33.141V67.221C1218 68.4914 1218.44 69.5271 1219.31 70.3142C1220.18 71.1151 1221.17 71.5017 1222.29 71.5017H1328.83C1334.71 71.5017 1340.07 72.9378 1344.91 75.7962C1349.76 78.6547 1353.65 82.5073 1356.59 87.3542C1359.54 92.201 1361 97.5588 1361 103.441V139.427C1361 145.31 1359.54 150.709 1356.59 155.638C1353.65 160.568 1349.76 164.462 1344.91 167.321C1340.07 170.179 1334.71 171.615 1328.83 171.615H1221.34L1221.32 171.588Z" fill="#252525"/>
</svg>
