<svg width="210" height="28" viewBox="0 0 210 28" fill="none" xmlns="http://www.w3.org/2000/svg">
<path d="M94.6816 20.8357L94.7221 25.9429C94.7264 26.58 95.2441 27.0935 95.8812 27.0935H118.432C119.071 27.0935 119.591 26.5736 119.591 25.9344V23.4309C119.591 22.7768 119.052 22.2526 118.4 22.2718L102.497 22.7235C101.449 22.7533 100.903 21.4877 101.645 20.7463L105.354 17.0325C105.571 16.8152 105.693 16.5211 105.693 16.2143V12.6263C105.693 11.5929 104.444 11.0773 103.714 11.806L94.6816 20.84M99.5374 7.98146V6.01486C99.5374 5.37566 100.057 4.85578 100.696 4.85578H118.432C119.071 4.85578 119.591 4.3359 119.591 3.6967V1.15908C119.591 0.519881 119.071 0 118.432 0H95.8428C95.2036 0 94.6838 0.519881 94.6838 1.15908V10.5191C94.6838 11.5524 95.9323 12.0681 96.6632 11.3394L99.2008 8.80176C99.4181 8.58443 99.5395 8.2904 99.5395 7.98146H99.5374Z" fill="white"/>
<path d="M0 26.4756V0H5.03688L14.9658 11.8401L24.8584 0H29.9337V26.4756H25.4848V6.17679L21.5538 10.8621C18.1149 14.9636 11.8081 14.9743 8.35645 10.8834L4.41473 6.21301V26.4756H0Z" fill="white"/>
<path d="M39.0162 26.4756C37.8678 26.4756 36.8387 26.1219 35.9267 25.4167C35.6178 25.178 35.3408 24.8989 35.1022 24.59C34.4012 23.6802 34.0518 22.6553 34.0518 21.5112V4.96444C34.0518 3.82454 34.4012 2.79969 35.0979 1.89203C35.3344 1.58308 35.6114 1.30396 35.9203 1.06533C36.8323 0.35582 37.8635 0 39.0162 0H55.5629C56.4684 0 57.2973 0.221589 58.0451 0.662636C58.793 1.10368 59.3938 1.70453 59.8477 2.46518C60.3015 3.22582 60.5274 4.05891 60.5274 4.96657V21.5133C60.5274 22.4209 60.2994 23.254 59.8477 24.0147C59.3938 24.7753 58.793 25.3762 58.0451 25.8172C57.2973 26.2583 56.4706 26.4799 55.5629 26.4799H39.0162V26.4756ZM39.1249 22.0268H55.4159C55.5863 22.0268 55.7398 21.9586 55.8761 21.8244C56.0125 21.6901 56.0785 21.5367 56.0785 21.3641V5.11146C56.0785 4.941 56.0104 4.7876 55.8761 4.65123C55.7419 4.517 55.5885 4.44882 55.4159 4.44882H39.1249C38.9523 4.44882 38.7989 4.517 38.6646 4.65123C38.5304 4.78547 38.4622 4.93887 38.4622 5.11146V21.3641C38.4622 21.5367 38.5304 21.6901 38.6646 21.8244C38.7989 21.9586 38.9523 22.0268 39.1249 22.0268Z" fill="white"/>
<path d="M158.651 26.4756C157.503 26.4756 156.473 26.1219 155.562 25.4167C155.253 25.178 154.976 24.8989 154.737 24.59C154.036 23.6802 153.687 22.6553 153.687 21.5112V4.96444C153.687 3.82454 154.036 2.79969 154.733 1.89203C154.969 1.58308 155.246 1.30396 155.555 1.06533C156.467 0.35582 157.498 0 158.651 0H175.198C176.105 0 176.932 0.221589 177.68 0.662636C178.428 1.10368 179.029 1.70453 179.482 2.46518C179.936 3.22582 180.162 4.05891 180.162 4.96657V21.5133C180.162 22.4209 179.934 23.254 179.482 24.0147C179.029 24.7753 178.428 25.3762 177.68 25.8172C176.932 26.2583 176.105 26.4799 175.198 26.4799H158.651V26.4756ZM158.76 22.0268H175.051C175.221 22.0268 175.375 21.9586 175.511 21.8244C175.647 21.6901 175.713 21.5367 175.713 21.3641V5.11146C175.713 4.941 175.645 4.7876 175.511 4.65123C175.377 4.517 175.223 4.44882 175.051 4.44882H158.76C158.587 4.44882 158.434 4.517 158.299 4.65123C158.165 4.78547 158.097 4.93887 158.097 5.11146V21.3641C158.097 21.5367 158.165 21.6901 158.299 21.8244C158.434 21.9586 158.587 22.0268 158.76 22.0268Z" fill="white"/>
<path d="M64.5713 25.7873V9.33008C64.5713 4.19732 68.7325 0.0361328 73.8652 0.0361328H86.0846C86.9901 0.0361328 87.8189 0.261983 88.5668 0.715814C89.3147 1.16964 89.9155 1.77049 90.3693 2.51835C90.8232 3.26622 91.049 4.09291 91.049 5.00057V12.0872C91.049 13.2718 90.6825 14.4415 89.9389 15.3641C89.5554 15.8392 89.0995 16.2334 88.5668 16.5466C87.8189 16.9877 86.9922 17.2093 86.0846 17.2093L69.6721 17.2455C69.2928 17.2455 68.986 17.5544 68.986 17.9337V25.7894C68.986 26.1687 68.6771 26.4776 68.2978 26.4776H65.2616C64.8824 26.4776 64.5734 26.1687 64.5734 25.7894L64.5713 25.7873ZM69.6465 12.7604H85.9376C86.108 12.7604 86.2614 12.6987 86.3978 12.5772C86.532 12.4558 86.6002 12.296 86.6002 12.0999V5.11137C86.6002 4.94092 86.532 4.78751 86.3978 4.65115C86.2636 4.51691 86.1101 4.44873 85.9376 4.44873H69.6465C69.4739 4.44873 69.3205 4.51691 69.1863 4.65115C69.0521 4.78538 68.9839 4.93878 68.9839 5.11137V12.0978C68.9839 12.2938 69.0521 12.4536 69.1863 12.5751C69.3205 12.6987 69.4739 12.7583 69.6465 12.7583V12.7604ZM85.7671 26.2305L77.8474 16.7682H83.3062C83.5065 16.7682 83.6961 16.8556 83.8261 17.0047L91.0213 25.3036C91.1151 25.4123 91.1726 25.5465 91.1875 25.6893V25.7213C91.228 26.124 90.9105 26.4734 90.5057 26.4734H86.2955C86.091 26.4734 85.8992 26.3839 85.7671 26.2262V26.2305Z" fill="white"/>
<path d="M123.077 25.3165V3.36645C123.077 1.50851 124.584 0 126.444 0H126.548C127.543 0 128.485 0.438916 129.124 1.20169L143.058 17.7889C143.755 18.6177 145.106 18.1255 145.106 17.0432V1.15908C145.104 0.519881 145.622 0 146.263 0H148.394C149.035 0 149.553 0.519881 149.553 1.15908V23.1113C149.553 24.9692 148.046 26.4777 146.186 26.4777H146.082C145.087 26.4777 144.145 26.0388 143.506 25.2782L130.581 9.89692C129.529 8.64622 127.49 9.38983 127.49 11.024V25.3187C127.49 25.9578 126.97 26.4777 126.331 26.4777H124.236C123.597 26.4777 123.077 25.9578 123.077 25.3187V25.3165Z" fill="white"/>
<path d="M188.449 26.4756C187.541 26.4756 186.714 26.254 185.967 25.813C185.219 25.3719 184.624 24.7711 184.183 24.0104C183.742 23.2498 183.521 22.4167 183.521 21.509V19.7448H186.316C187.209 19.7448 187.933 20.4693 187.933 21.362C187.933 21.5346 188.001 21.688 188.136 21.8222C188.27 21.9565 188.423 22.0246 188.596 22.0246H204.848C205.044 22.0246 205.211 21.9565 205.345 21.8222C205.479 21.688 205.547 21.5346 205.547 21.362V16.1035C205.547 15.9075 205.479 15.7477 205.345 15.6263C205.211 15.5048 205.044 15.443 204.848 15.443H188.449C187.541 15.443 186.714 15.2214 185.967 14.7804C185.219 14.3394 184.624 13.7449 184.183 12.997C183.742 12.2492 183.521 11.4225 183.521 10.5148V4.96231C183.521 4.05465 183.742 3.22156 184.183 2.46091C184.624 1.70027 185.219 1.09942 185.967 0.658374C186.714 0.221589 187.541 0 188.449 0H205.034C205.939 0 206.768 0.221589 207.516 0.662636C208.264 1.10368 208.865 1.70453 209.319 2.46518C209.772 3.22582 209.998 4.05891 209.998 4.96657V6.73076H207.167C206.274 6.73076 205.549 6.00633 205.549 5.11359C205.549 4.94313 205.481 4.78973 205.347 4.65336C205.213 4.51913 205.047 4.45095 204.851 4.45095H188.598C188.425 4.45095 188.272 4.51913 188.138 4.65336C188.003 4.7876 187.935 4.941 187.935 5.11359V10.3721C187.935 10.5681 188.003 10.7279 188.138 10.8493C188.272 10.9729 188.425 11.0326 188.598 11.0326H205.036C205.944 11.0326 206.77 11.2542 207.518 11.6952C208.266 12.1362 208.867 12.7307 209.321 13.4786C209.775 14.2264 210 15.0531 210 15.9608V21.5133C210 22.4209 209.775 23.254 209.321 24.0147C208.867 24.7753 208.266 25.3762 207.518 25.8172C206.77 26.2583 205.944 26.4799 205.036 26.4799H188.451L188.449 26.4756Z" fill="white"/>
</svg>
