<svg width="649" height="705" viewBox="0 0 649 705" fill="none" xmlns="http://www.w3.org/2000/svg">
<path d="M0 542.167L1.05476 675.061C1.16578 691.638 14.6554 705 31.2537 705H618.801C635.455 705 649 691.472 649 674.84V609.695C649 592.675 634.955 579.036 617.969 579.535L203.621 591.289C176.309 592.065 162.097 559.132 181.416 539.838L278.064 443.203C283.726 437.548 286.89 429.897 286.89 421.913V328.549C286.89 301.66 254.36 288.243 235.319 307.204L0 542.278M126.514 207.686V156.513C126.514 139.88 140.059 126.352 156.713 126.352H618.801C635.455 126.352 649 112.824 649 96.1918V30.1604C649 13.5278 635.455 0 618.801 0H30.2544C13.6005 0 0.055567 13.5278 0.055567 30.1604V273.717C0.055567 300.606 32.5859 314.023 51.6268 295.062L117.743 229.031C123.405 223.376 126.569 215.725 126.569 207.686H126.514Z" fill="#E9E9E9"/>
</svg>
